<svg width="23" height="23" viewBox="0 0 23 23" fill="none" xmlns="http://www.w3.org/2000/svg">
<path d="M6.41761 21.5467C8.25002 22.5261 10.3352 23 12.6731 23C14.6951 23 16.4959 22.6525 18.1388 21.9258C19.75 21.2308 21.1086 20.1882 22.1827 18.8297L18.202 15.228C16.7487 16.9657 15.011 17.8187 12.989 17.8187C11.7885 17.8187 10.7143 17.5659 9.76652 17.0288C8.81871 16.5234 8.09206 15.7651 7.58656 14.8173C7.08107 13.8695 6.82834 12.7637 6.82834 11.5C6.82834 10.2679 7.08107 9.16209 7.58656 8.21429C8.09206 7.26648 8.81871 6.50824 9.76652 5.97115C10.7143 5.46566 11.7885 5.18132 12.989 5.18132C15.011 5.18132 16.7487 6.06594 18.202 7.77198L22.1827 4.17033C21.1086 2.84341 19.75 1.80082 18.1388 1.07418C16.4959 0.379122 14.6951 0 12.6731 0C10.3352 0 8.25002 0.505496 6.41761 1.48489C4.58519 2.46429 3.13189 3.8228 2.0893 5.56044C1.01513 7.32967 0.509644 9.28846 0.509644 11.5C0.509644 13.7115 1.01513 15.7019 2.0893 17.4396C3.13189 19.2088 4.58519 20.5673 6.41761 21.5467Z" fill="white"/>
</svg>
