<svg width="24" height="23" viewBox="0 0 24 23" fill="none" xmlns="http://www.w3.org/2000/svg">
<path d="M21.6833 5.6553C20.6407 4.01244 19.1874 2.71711 17.3234 1.8009C15.4278 0.916284 13.2794 0.442383 10.8783 0.442383H0.420898V5.43414H10.6256C12.5212 5.43414 14.0377 5.97123 15.175 7.04541C16.3124 8.15118 16.9127 9.63607 16.9127 11.5001C16.9127 13.3957 16.3124 14.8806 15.175 15.9547C14.0377 17.0289 12.5212 17.566 10.6256 17.566H6.67638V11.6896H0.420898V22.5578H10.8783C13.2794 22.5578 15.4278 22.1155 17.3234 21.1993C19.1874 20.3146 20.6407 19.0193 21.6833 17.3449C22.6942 15.702 23.2313 13.7432 23.2313 11.5001C23.2313 9.28854 22.6942 7.32975 21.6833 5.6553Z" fill="white"/>
</svg>
